<mxfile host="app.diagrams.net" agent="Mozilla/5.0 (Windows NT 10.0; Win64; x64) AppleWebKit/537.36 (KHTML, like Gecko) Chrome/133.0.0.0 Safari/537.36" version="26.1.0">
  <diagram id="C5RBs43oDa-KdzZeNtuy" name="Page-1">
    <mxGraphModel dx="2062" dy="665" grid="1" gridSize="10" guides="1" tooltips="1" connect="1" arrows="1" fold="1" page="1" pageScale="1" pageWidth="827" pageHeight="1169" math="0" shadow="0">
      <root>
        <mxCell id="WIyWlLk6GJQsqaUBKTNV-0" />
        <mxCell id="WIyWlLk6GJQsqaUBKTNV-1" parent="WIyWlLk6GJQsqaUBKTNV-0" />
        <mxCell id="DlghnV1sn_fekvTvnl19-25" style="edgeStyle=orthogonalEdgeStyle;rounded=0;orthogonalLoop=1;jettySize=auto;html=1;exitX=1;exitY=0.5;exitDx=0;exitDy=0;entryX=0;entryY=0.5;entryDx=0;entryDy=0;" edge="1" parent="WIyWlLk6GJQsqaUBKTNV-1" source="WIyWlLk6GJQsqaUBKTNV-3" target="DlghnV1sn_fekvTvnl19-0">
          <mxGeometry relative="1" as="geometry" />
        </mxCell>
        <mxCell id="WIyWlLk6GJQsqaUBKTNV-3" value="Главная страница" style="rounded=1;whiteSpace=wrap;html=1;fontSize=12;glass=0;strokeWidth=1;shadow=0;" parent="WIyWlLk6GJQsqaUBKTNV-1" vertex="1">
          <mxGeometry x="40" y="360" width="120" height="40" as="geometry" />
        </mxCell>
        <mxCell id="DlghnV1sn_fekvTvnl19-35" style="edgeStyle=orthogonalEdgeStyle;rounded=0;orthogonalLoop=1;jettySize=auto;html=1;exitX=1;exitY=0.5;exitDx=0;exitDy=0;entryX=0;entryY=0.5;entryDx=0;entryDy=0;" edge="1" parent="WIyWlLk6GJQsqaUBKTNV-1" source="DlghnV1sn_fekvTvnl19-0" target="DlghnV1sn_fekvTvnl19-28">
          <mxGeometry relative="1" as="geometry" />
        </mxCell>
        <mxCell id="DlghnV1sn_fekvTvnl19-0" value="Поиск товаров" style="rounded=1;whiteSpace=wrap;html=1;fontSize=12;glass=0;strokeWidth=1;shadow=0;" vertex="1" parent="WIyWlLk6GJQsqaUBKTNV-1">
          <mxGeometry x="200" y="360" width="120" height="40" as="geometry" />
        </mxCell>
        <mxCell id="DlghnV1sn_fekvTvnl19-37" style="edgeStyle=orthogonalEdgeStyle;rounded=0;orthogonalLoop=1;jettySize=auto;html=1;exitX=1;exitY=0.5;exitDx=0;exitDy=0;entryX=0;entryY=0.5;entryDx=0;entryDy=0;" edge="1" parent="WIyWlLk6GJQsqaUBKTNV-1" source="DlghnV1sn_fekvTvnl19-1" target="DlghnV1sn_fekvTvnl19-2">
          <mxGeometry relative="1" as="geometry" />
        </mxCell>
        <mxCell id="DlghnV1sn_fekvTvnl19-1" value="Просмотр страницы с объявлениями" style="rounded=1;whiteSpace=wrap;html=1;fontSize=12;glass=0;strokeWidth=1;shadow=0;" vertex="1" parent="WIyWlLk6GJQsqaUBKTNV-1">
          <mxGeometry x="520" y="360" width="120" height="40" as="geometry" />
        </mxCell>
        <mxCell id="DlghnV1sn_fekvTvnl19-39" style="edgeStyle=orthogonalEdgeStyle;rounded=0;orthogonalLoop=1;jettySize=auto;html=1;exitX=0.5;exitY=1;exitDx=0;exitDy=0;entryX=0.5;entryY=0;entryDx=0;entryDy=0;" edge="1" parent="WIyWlLk6GJQsqaUBKTNV-1" source="DlghnV1sn_fekvTvnl19-2" target="DlghnV1sn_fekvTvnl19-38">
          <mxGeometry relative="1" as="geometry" />
        </mxCell>
        <mxCell id="DlghnV1sn_fekvTvnl19-2" value="Сортировка товаров" style="rounded=1;whiteSpace=wrap;html=1;fontSize=12;glass=0;strokeWidth=1;shadow=0;" vertex="1" parent="WIyWlLk6GJQsqaUBKTNV-1">
          <mxGeometry x="680" y="360" width="120" height="40" as="geometry" />
        </mxCell>
        <mxCell id="DlghnV1sn_fekvTvnl19-46" style="edgeStyle=orthogonalEdgeStyle;rounded=0;orthogonalLoop=1;jettySize=auto;html=1;exitX=0;exitY=0.5;exitDx=0;exitDy=0;entryX=1;entryY=0.5;entryDx=0;entryDy=0;" edge="1" parent="WIyWlLk6GJQsqaUBKTNV-1" source="DlghnV1sn_fekvTvnl19-3" target="DlghnV1sn_fekvTvnl19-4">
          <mxGeometry relative="1" as="geometry" />
        </mxCell>
        <mxCell id="DlghnV1sn_fekvTvnl19-3" value="Выбор товара" style="rounded=1;whiteSpace=wrap;html=1;fontSize=12;glass=0;strokeWidth=1;shadow=0;" vertex="1" parent="WIyWlLk6GJQsqaUBKTNV-1">
          <mxGeometry x="520" y="440" width="120" height="40" as="geometry" />
        </mxCell>
        <mxCell id="DlghnV1sn_fekvTvnl19-47" style="edgeStyle=orthogonalEdgeStyle;rounded=0;orthogonalLoop=1;jettySize=auto;html=1;exitX=0;exitY=0.5;exitDx=0;exitDy=0;entryX=1;entryY=0.5;entryDx=0;entryDy=0;" edge="1" parent="WIyWlLk6GJQsqaUBKTNV-1" source="DlghnV1sn_fekvTvnl19-4" target="DlghnV1sn_fekvTvnl19-6">
          <mxGeometry relative="1" as="geometry" />
        </mxCell>
        <mxCell id="DlghnV1sn_fekvTvnl19-4" value="Просмотр страницы товара" style="rounded=1;whiteSpace=wrap;html=1;fontSize=12;glass=0;strokeWidth=1;shadow=0;" vertex="1" parent="WIyWlLk6GJQsqaUBKTNV-1">
          <mxGeometry x="360" y="440" width="120" height="40" as="geometry" />
        </mxCell>
        <mxCell id="DlghnV1sn_fekvTvnl19-49" style="edgeStyle=orthogonalEdgeStyle;rounded=0;orthogonalLoop=1;jettySize=auto;html=1;exitX=0;exitY=0.5;exitDx=0;exitDy=0;entryX=1;entryY=0.5;entryDx=0;entryDy=0;" edge="1" parent="WIyWlLk6GJQsqaUBKTNV-1" source="DlghnV1sn_fekvTvnl19-6" target="DlghnV1sn_fekvTvnl19-48">
          <mxGeometry relative="1" as="geometry" />
        </mxCell>
        <mxCell id="DlghnV1sn_fekvTvnl19-6" value="Нажатие кнопки &quot;Написать&quot;" style="rounded=1;whiteSpace=wrap;html=1;fontSize=12;glass=0;strokeWidth=1;shadow=0;" vertex="1" parent="WIyWlLk6GJQsqaUBKTNV-1">
          <mxGeometry x="200" y="440" width="120" height="40" as="geometry" />
        </mxCell>
        <mxCell id="DlghnV1sn_fekvTvnl19-50" style="edgeStyle=orthogonalEdgeStyle;rounded=0;orthogonalLoop=1;jettySize=auto;html=1;exitX=0.5;exitY=0;exitDx=0;exitDy=0;entryX=0.5;entryY=1;entryDx=0;entryDy=0;" edge="1" parent="WIyWlLk6GJQsqaUBKTNV-1" source="DlghnV1sn_fekvTvnl19-7" target="DlghnV1sn_fekvTvnl19-6">
          <mxGeometry relative="1" as="geometry" />
        </mxCell>
        <mxCell id="DlghnV1sn_fekvTvnl19-7" value="Вход или регистрация" style="rounded=1;whiteSpace=wrap;html=1;fontSize=12;glass=0;strokeWidth=1;shadow=0;" vertex="1" parent="WIyWlLk6GJQsqaUBKTNV-1">
          <mxGeometry x="200" y="520" width="120" height="40" as="geometry" />
        </mxCell>
        <mxCell id="DlghnV1sn_fekvTvnl19-55" style="edgeStyle=orthogonalEdgeStyle;rounded=0;orthogonalLoop=1;jettySize=auto;html=1;exitX=0.5;exitY=1;exitDx=0;exitDy=0;entryX=0.5;entryY=0;entryDx=0;entryDy=0;" edge="1" parent="WIyWlLk6GJQsqaUBKTNV-1" source="DlghnV1sn_fekvTvnl19-10" target="DlghnV1sn_fekvTvnl19-11">
          <mxGeometry relative="1" as="geometry" />
        </mxCell>
        <mxCell id="DlghnV1sn_fekvTvnl19-10" value="Просмотр диалога с продавцом" style="rounded=1;whiteSpace=wrap;html=1;fontSize=12;glass=0;strokeWidth=1;shadow=0;" vertex="1" parent="WIyWlLk6GJQsqaUBKTNV-1">
          <mxGeometry x="-120" y="440" width="120" height="40" as="geometry" />
        </mxCell>
        <mxCell id="DlghnV1sn_fekvTvnl19-11" value="Договор о личной встрече" style="rounded=1;whiteSpace=wrap;html=1;fontSize=12;glass=0;strokeWidth=1;shadow=0;" vertex="1" parent="WIyWlLk6GJQsqaUBKTNV-1">
          <mxGeometry x="-120" y="520" width="120" height="40" as="geometry" />
        </mxCell>
        <mxCell id="DlghnV1sn_fekvTvnl19-31" style="edgeStyle=orthogonalEdgeStyle;rounded=0;orthogonalLoop=1;jettySize=auto;html=1;exitX=0.5;exitY=0;exitDx=0;exitDy=0;entryX=0.5;entryY=1;entryDx=0;entryDy=0;" edge="1" parent="WIyWlLk6GJQsqaUBKTNV-1" source="DlghnV1sn_fekvTvnl19-28" target="DlghnV1sn_fekvTvnl19-30">
          <mxGeometry relative="1" as="geometry" />
        </mxCell>
        <mxCell id="DlghnV1sn_fekvTvnl19-32" value="Нет" style="edgeLabel;html=1;align=center;verticalAlign=middle;resizable=0;points=[];" vertex="1" connectable="0" parent="DlghnV1sn_fekvTvnl19-31">
          <mxGeometry x="-0.04" relative="1" as="geometry">
            <mxPoint as="offset" />
          </mxGeometry>
        </mxCell>
        <mxCell id="DlghnV1sn_fekvTvnl19-33" style="edgeStyle=orthogonalEdgeStyle;rounded=0;orthogonalLoop=1;jettySize=auto;html=1;exitX=1;exitY=0.5;exitDx=0;exitDy=0;" edge="1" parent="WIyWlLk6GJQsqaUBKTNV-1" source="DlghnV1sn_fekvTvnl19-28" target="DlghnV1sn_fekvTvnl19-1">
          <mxGeometry relative="1" as="geometry" />
        </mxCell>
        <mxCell id="DlghnV1sn_fekvTvnl19-34" value="Да" style="edgeLabel;html=1;align=center;verticalAlign=middle;resizable=0;points=[];" vertex="1" connectable="0" parent="DlghnV1sn_fekvTvnl19-33">
          <mxGeometry x="-0.18" y="-1" relative="1" as="geometry">
            <mxPoint as="offset" />
          </mxGeometry>
        </mxCell>
        <mxCell id="DlghnV1sn_fekvTvnl19-28" value="Товары найдены?" style="rhombus;whiteSpace=wrap;html=1;" vertex="1" parent="WIyWlLk6GJQsqaUBKTNV-1">
          <mxGeometry x="360" y="350" width="120" height="60" as="geometry" />
        </mxCell>
        <mxCell id="DlghnV1sn_fekvTvnl19-36" style="edgeStyle=orthogonalEdgeStyle;rounded=0;orthogonalLoop=1;jettySize=auto;html=1;exitX=0;exitY=0.5;exitDx=0;exitDy=0;entryX=0.5;entryY=0;entryDx=0;entryDy=0;" edge="1" parent="WIyWlLk6GJQsqaUBKTNV-1" source="DlghnV1sn_fekvTvnl19-30" target="DlghnV1sn_fekvTvnl19-0">
          <mxGeometry relative="1" as="geometry" />
        </mxCell>
        <mxCell id="DlghnV1sn_fekvTvnl19-30" value="Смена параметров поиска" style="rounded=1;whiteSpace=wrap;html=1;fontSize=12;glass=0;strokeWidth=1;shadow=0;" vertex="1" parent="WIyWlLk6GJQsqaUBKTNV-1">
          <mxGeometry x="360" y="280" width="120" height="40" as="geometry" />
        </mxCell>
        <mxCell id="DlghnV1sn_fekvTvnl19-40" style="edgeStyle=orthogonalEdgeStyle;rounded=0;orthogonalLoop=1;jettySize=auto;html=1;exitX=0;exitY=0.5;exitDx=0;exitDy=0;entryX=1;entryY=0.5;entryDx=0;entryDy=0;" edge="1" parent="WIyWlLk6GJQsqaUBKTNV-1" source="DlghnV1sn_fekvTvnl19-38" target="DlghnV1sn_fekvTvnl19-3">
          <mxGeometry relative="1" as="geometry" />
        </mxCell>
        <mxCell id="DlghnV1sn_fekvTvnl19-41" value="Да" style="edgeLabel;html=1;align=center;verticalAlign=middle;resizable=0;points=[];" vertex="1" connectable="0" parent="DlghnV1sn_fekvTvnl19-40">
          <mxGeometry x="-0.07" y="-2" relative="1" as="geometry">
            <mxPoint as="offset" />
          </mxGeometry>
        </mxCell>
        <mxCell id="DlghnV1sn_fekvTvnl19-43" style="edgeStyle=orthogonalEdgeStyle;rounded=0;orthogonalLoop=1;jettySize=auto;html=1;exitX=0.5;exitY=1;exitDx=0;exitDy=0;entryX=0.5;entryY=0;entryDx=0;entryDy=0;" edge="1" parent="WIyWlLk6GJQsqaUBKTNV-1" source="DlghnV1sn_fekvTvnl19-38" target="DlghnV1sn_fekvTvnl19-42">
          <mxGeometry relative="1" as="geometry" />
        </mxCell>
        <mxCell id="DlghnV1sn_fekvTvnl19-44" value="Нет" style="edgeLabel;html=1;align=center;verticalAlign=middle;resizable=0;points=[];" vertex="1" connectable="0" parent="DlghnV1sn_fekvTvnl19-43">
          <mxGeometry x="-0.16" y="2" relative="1" as="geometry">
            <mxPoint as="offset" />
          </mxGeometry>
        </mxCell>
        <mxCell id="DlghnV1sn_fekvTvnl19-38" value="Товары найдены?" style="rhombus;whiteSpace=wrap;html=1;" vertex="1" parent="WIyWlLk6GJQsqaUBKTNV-1">
          <mxGeometry x="680" y="430" width="120" height="60" as="geometry" />
        </mxCell>
        <mxCell id="DlghnV1sn_fekvTvnl19-45" style="edgeStyle=orthogonalEdgeStyle;rounded=0;orthogonalLoop=1;jettySize=auto;html=1;exitX=1;exitY=0.5;exitDx=0;exitDy=0;entryX=1;entryY=0.5;entryDx=0;entryDy=0;" edge="1" parent="WIyWlLk6GJQsqaUBKTNV-1" source="DlghnV1sn_fekvTvnl19-42" target="DlghnV1sn_fekvTvnl19-2">
          <mxGeometry relative="1" as="geometry" />
        </mxCell>
        <mxCell id="DlghnV1sn_fekvTvnl19-42" value="Смена параметров сортировки" style="rounded=1;whiteSpace=wrap;html=1;fontSize=12;glass=0;strokeWidth=1;shadow=0;" vertex="1" parent="WIyWlLk6GJQsqaUBKTNV-1">
          <mxGeometry x="680" y="520" width="120" height="40" as="geometry" />
        </mxCell>
        <mxCell id="DlghnV1sn_fekvTvnl19-51" style="edgeStyle=orthogonalEdgeStyle;rounded=0;orthogonalLoop=1;jettySize=auto;html=1;exitX=0.5;exitY=1;exitDx=0;exitDy=0;entryX=0;entryY=0.5;entryDx=0;entryDy=0;" edge="1" parent="WIyWlLk6GJQsqaUBKTNV-1" source="DlghnV1sn_fekvTvnl19-48" target="DlghnV1sn_fekvTvnl19-7">
          <mxGeometry relative="1" as="geometry" />
        </mxCell>
        <mxCell id="DlghnV1sn_fekvTvnl19-52" value="Нет" style="edgeLabel;html=1;align=center;verticalAlign=middle;resizable=0;points=[];" vertex="1" connectable="0" parent="DlghnV1sn_fekvTvnl19-51">
          <mxGeometry x="0.3787" y="3" relative="1" as="geometry">
            <mxPoint as="offset" />
          </mxGeometry>
        </mxCell>
        <mxCell id="DlghnV1sn_fekvTvnl19-54" style="edgeStyle=orthogonalEdgeStyle;rounded=0;orthogonalLoop=1;jettySize=auto;html=1;exitX=0;exitY=0.5;exitDx=0;exitDy=0;entryX=1;entryY=0.5;entryDx=0;entryDy=0;" edge="1" parent="WIyWlLk6GJQsqaUBKTNV-1" source="DlghnV1sn_fekvTvnl19-48" target="DlghnV1sn_fekvTvnl19-10">
          <mxGeometry relative="1" as="geometry" />
        </mxCell>
        <mxCell id="DlghnV1sn_fekvTvnl19-56" value="Да" style="edgeLabel;html=1;align=center;verticalAlign=middle;resizable=0;points=[];" vertex="1" connectable="0" parent="DlghnV1sn_fekvTvnl19-54">
          <mxGeometry x="-0.1588" y="3" relative="1" as="geometry">
            <mxPoint as="offset" />
          </mxGeometry>
        </mxCell>
        <mxCell id="DlghnV1sn_fekvTvnl19-48" value="Пользователь авторизирован?" style="rhombus;whiteSpace=wrap;html=1;" vertex="1" parent="WIyWlLk6GJQsqaUBKTNV-1">
          <mxGeometry x="40" y="430" width="120" height="60" as="geometry" />
        </mxCell>
        <mxCell id="DlghnV1sn_fekvTvnl19-73" style="edgeStyle=orthogonalEdgeStyle;rounded=0;orthogonalLoop=1;jettySize=auto;html=1;exitX=1;exitY=0.5;exitDx=0;exitDy=0;entryX=0;entryY=0.5;entryDx=0;entryDy=0;" edge="1" parent="WIyWlLk6GJQsqaUBKTNV-1" source="DlghnV1sn_fekvTvnl19-57" target="DlghnV1sn_fekvTvnl19-58">
          <mxGeometry relative="1" as="geometry" />
        </mxCell>
        <mxCell id="DlghnV1sn_fekvTvnl19-57" value="Главная страница" style="rounded=1;whiteSpace=wrap;html=1;fontSize=12;glass=0;strokeWidth=1;shadow=0;" vertex="1" parent="WIyWlLk6GJQsqaUBKTNV-1">
          <mxGeometry x="40" y="680" width="120" height="40" as="geometry" />
        </mxCell>
        <mxCell id="DlghnV1sn_fekvTvnl19-74" style="edgeStyle=orthogonalEdgeStyle;rounded=0;orthogonalLoop=1;jettySize=auto;html=1;exitX=1;exitY=0.5;exitDx=0;exitDy=0;entryX=0;entryY=0.5;entryDx=0;entryDy=0;" edge="1" parent="WIyWlLk6GJQsqaUBKTNV-1" source="DlghnV1sn_fekvTvnl19-58" target="DlghnV1sn_fekvTvnl19-59">
          <mxGeometry relative="1" as="geometry" />
        </mxCell>
        <mxCell id="DlghnV1sn_fekvTvnl19-58" value="Выбор общей категории товаров" style="rounded=1;whiteSpace=wrap;html=1;fontSize=12;glass=0;strokeWidth=1;shadow=0;" vertex="1" parent="WIyWlLk6GJQsqaUBKTNV-1">
          <mxGeometry x="200" y="680" width="120" height="40" as="geometry" />
        </mxCell>
        <mxCell id="DlghnV1sn_fekvTvnl19-75" style="edgeStyle=orthogonalEdgeStyle;rounded=0;orthogonalLoop=1;jettySize=auto;html=1;exitX=1;exitY=0.5;exitDx=0;exitDy=0;entryX=0;entryY=0.5;entryDx=0;entryDy=0;" edge="1" parent="WIyWlLk6GJQsqaUBKTNV-1" source="DlghnV1sn_fekvTvnl19-59" target="DlghnV1sn_fekvTvnl19-61">
          <mxGeometry relative="1" as="geometry" />
        </mxCell>
        <mxCell id="DlghnV1sn_fekvTvnl19-59" value="Выбор точной категории товаров" style="rounded=1;whiteSpace=wrap;html=1;fontSize=12;glass=0;strokeWidth=1;shadow=0;" vertex="1" parent="WIyWlLk6GJQsqaUBKTNV-1">
          <mxGeometry x="360" y="680" width="120" height="40" as="geometry" />
        </mxCell>
        <mxCell id="DlghnV1sn_fekvTvnl19-76" style="edgeStyle=orthogonalEdgeStyle;rounded=0;orthogonalLoop=1;jettySize=auto;html=1;exitX=0.5;exitY=1;exitDx=0;exitDy=0;entryX=0.5;entryY=0;entryDx=0;entryDy=0;" edge="1" parent="WIyWlLk6GJQsqaUBKTNV-1" source="DlghnV1sn_fekvTvnl19-61" target="DlghnV1sn_fekvTvnl19-62">
          <mxGeometry relative="1" as="geometry" />
        </mxCell>
        <mxCell id="DlghnV1sn_fekvTvnl19-61" value="Фильтрация товаров по цене" style="rounded=1;whiteSpace=wrap;html=1;fontSize=12;glass=0;strokeWidth=1;shadow=0;" vertex="1" parent="WIyWlLk6GJQsqaUBKTNV-1">
          <mxGeometry x="520" y="680" width="120" height="40" as="geometry" />
        </mxCell>
        <mxCell id="DlghnV1sn_fekvTvnl19-77" value="Нет" style="edgeStyle=orthogonalEdgeStyle;rounded=0;orthogonalLoop=1;jettySize=auto;html=1;exitX=1;exitY=0.5;exitDx=0;exitDy=0;entryX=0;entryY=0.5;entryDx=0;entryDy=0;" edge="1" parent="WIyWlLk6GJQsqaUBKTNV-1" source="DlghnV1sn_fekvTvnl19-62" target="DlghnV1sn_fekvTvnl19-63">
          <mxGeometry relative="1" as="geometry" />
        </mxCell>
        <mxCell id="DlghnV1sn_fekvTvnl19-79" value="Да" style="edgeStyle=orthogonalEdgeStyle;rounded=0;orthogonalLoop=1;jettySize=auto;html=1;exitX=0;exitY=0.5;exitDx=0;exitDy=0;" edge="1" parent="WIyWlLk6GJQsqaUBKTNV-1" source="DlghnV1sn_fekvTvnl19-62" target="DlghnV1sn_fekvTvnl19-66">
          <mxGeometry relative="1" as="geometry" />
        </mxCell>
        <mxCell id="DlghnV1sn_fekvTvnl19-80" value="да" style="edgeLabel;html=1;align=center;verticalAlign=middle;resizable=0;points=[];" vertex="1" connectable="0" parent="DlghnV1sn_fekvTvnl19-79">
          <mxGeometry x="-0.0294" y="-3" relative="1" as="geometry">
            <mxPoint x="1" as="offset" />
          </mxGeometry>
        </mxCell>
        <mxCell id="DlghnV1sn_fekvTvnl19-62" value="Товары найдены?" style="rhombus;whiteSpace=wrap;html=1;" vertex="1" parent="WIyWlLk6GJQsqaUBKTNV-1">
          <mxGeometry x="520" y="750" width="120" height="60" as="geometry" />
        </mxCell>
        <mxCell id="DlghnV1sn_fekvTvnl19-78" style="edgeStyle=orthogonalEdgeStyle;rounded=0;orthogonalLoop=1;jettySize=auto;html=1;exitX=0.5;exitY=0;exitDx=0;exitDy=0;entryX=1;entryY=0.5;entryDx=0;entryDy=0;" edge="1" parent="WIyWlLk6GJQsqaUBKTNV-1" source="DlghnV1sn_fekvTvnl19-63" target="DlghnV1sn_fekvTvnl19-61">
          <mxGeometry relative="1" as="geometry" />
        </mxCell>
        <mxCell id="DlghnV1sn_fekvTvnl19-63" value="Смена параметров фильтрации" style="rounded=1;whiteSpace=wrap;html=1;fontSize=12;glass=0;strokeWidth=1;shadow=0;" vertex="1" parent="WIyWlLk6GJQsqaUBKTNV-1">
          <mxGeometry x="680" y="760" width="120" height="40" as="geometry" />
        </mxCell>
        <mxCell id="DlghnV1sn_fekvTvnl19-81" style="edgeStyle=orthogonalEdgeStyle;rounded=0;orthogonalLoop=1;jettySize=auto;html=1;exitX=0;exitY=0.5;exitDx=0;exitDy=0;entryX=1;entryY=0.5;entryDx=0;entryDy=0;" edge="1" parent="WIyWlLk6GJQsqaUBKTNV-1" source="DlghnV1sn_fekvTvnl19-66" target="DlghnV1sn_fekvTvnl19-67">
          <mxGeometry relative="1" as="geometry" />
        </mxCell>
        <mxCell id="DlghnV1sn_fekvTvnl19-66" value="Просмотр страницы с объявлениями" style="rounded=1;whiteSpace=wrap;html=1;fontSize=12;glass=0;strokeWidth=1;shadow=0;" vertex="1" parent="WIyWlLk6GJQsqaUBKTNV-1">
          <mxGeometry x="360" y="760" width="120" height="40" as="geometry" />
        </mxCell>
        <mxCell id="DlghnV1sn_fekvTvnl19-82" style="edgeStyle=orthogonalEdgeStyle;rounded=0;orthogonalLoop=1;jettySize=auto;html=1;exitX=0;exitY=0.5;exitDx=0;exitDy=0;entryX=1;entryY=0.5;entryDx=0;entryDy=0;" edge="1" parent="WIyWlLk6GJQsqaUBKTNV-1" source="DlghnV1sn_fekvTvnl19-67" target="DlghnV1sn_fekvTvnl19-68">
          <mxGeometry relative="1" as="geometry" />
        </mxCell>
        <mxCell id="DlghnV1sn_fekvTvnl19-67" value="Выбор товара" style="rounded=1;whiteSpace=wrap;html=1;fontSize=12;glass=0;strokeWidth=1;shadow=0;" vertex="1" parent="WIyWlLk6GJQsqaUBKTNV-1">
          <mxGeometry x="200" y="760" width="120" height="40" as="geometry" />
        </mxCell>
        <mxCell id="DlghnV1sn_fekvTvnl19-83" style="edgeStyle=orthogonalEdgeStyle;rounded=0;orthogonalLoop=1;jettySize=auto;html=1;exitX=0.5;exitY=1;exitDx=0;exitDy=0;entryX=0.5;entryY=0;entryDx=0;entryDy=0;" edge="1" parent="WIyWlLk6GJQsqaUBKTNV-1" source="DlghnV1sn_fekvTvnl19-68" target="DlghnV1sn_fekvTvnl19-69">
          <mxGeometry relative="1" as="geometry" />
        </mxCell>
        <mxCell id="DlghnV1sn_fekvTvnl19-68" value="&lt;font style=&quot;font-size: 10px;&quot;&gt;Выбор быстрого вопроса пункта &quot;Спросите у продавца&quot;&lt;/font&gt;" style="rounded=1;whiteSpace=wrap;html=1;fontSize=12;glass=0;strokeWidth=1;shadow=0;" vertex="1" parent="WIyWlLk6GJQsqaUBKTNV-1">
          <mxGeometry x="40" y="760" width="120" height="40" as="geometry" />
        </mxCell>
        <mxCell id="DlghnV1sn_fekvTvnl19-84" value="Нет" style="edgeStyle=orthogonalEdgeStyle;rounded=0;orthogonalLoop=1;jettySize=auto;html=1;exitX=0;exitY=0.5;exitDx=0;exitDy=0;entryX=1;entryY=0.5;entryDx=0;entryDy=0;" edge="1" parent="WIyWlLk6GJQsqaUBKTNV-1" source="DlghnV1sn_fekvTvnl19-69" target="DlghnV1sn_fekvTvnl19-70">
          <mxGeometry relative="1" as="geometry" />
        </mxCell>
        <mxCell id="DlghnV1sn_fekvTvnl19-86" value="нет" style="edgeLabel;html=1;align=center;verticalAlign=middle;resizable=0;points=[];" vertex="1" connectable="0" parent="DlghnV1sn_fekvTvnl19-84">
          <mxGeometry x="-0.2059" y="-4" relative="1" as="geometry">
            <mxPoint x="-1" as="offset" />
          </mxGeometry>
        </mxCell>
        <mxCell id="DlghnV1sn_fekvTvnl19-87" style="edgeStyle=orthogonalEdgeStyle;rounded=0;orthogonalLoop=1;jettySize=auto;html=1;exitX=1;exitY=0.5;exitDx=0;exitDy=0;entryX=0;entryY=0.5;entryDx=0;entryDy=0;" edge="1" parent="WIyWlLk6GJQsqaUBKTNV-1" source="DlghnV1sn_fekvTvnl19-69" target="DlghnV1sn_fekvTvnl19-71">
          <mxGeometry relative="1" as="geometry">
            <Array as="points">
              <mxPoint x="180" y="860" />
              <mxPoint x="180" y="860" />
            </Array>
          </mxGeometry>
        </mxCell>
        <mxCell id="DlghnV1sn_fekvTvnl19-88" value="Да" style="edgeLabel;html=1;align=center;verticalAlign=middle;resizable=0;points=[];" vertex="1" connectable="0" parent="DlghnV1sn_fekvTvnl19-87">
          <mxGeometry x="-0.1468" y="-2" relative="1" as="geometry">
            <mxPoint x="-1" as="offset" />
          </mxGeometry>
        </mxCell>
        <mxCell id="DlghnV1sn_fekvTvnl19-69" value="Пользователь авторизирован?" style="rhombus;whiteSpace=wrap;html=1;" vertex="1" parent="WIyWlLk6GJQsqaUBKTNV-1">
          <mxGeometry x="40" y="830" width="120" height="60" as="geometry" />
        </mxCell>
        <mxCell id="DlghnV1sn_fekvTvnl19-85" style="edgeStyle=orthogonalEdgeStyle;rounded=0;orthogonalLoop=1;jettySize=auto;html=1;exitX=0.5;exitY=0;exitDx=0;exitDy=0;entryX=0;entryY=0.5;entryDx=0;entryDy=0;" edge="1" parent="WIyWlLk6GJQsqaUBKTNV-1" source="DlghnV1sn_fekvTvnl19-70" target="DlghnV1sn_fekvTvnl19-68">
          <mxGeometry relative="1" as="geometry" />
        </mxCell>
        <mxCell id="DlghnV1sn_fekvTvnl19-70" value="Вход или регистрация" style="rounded=1;whiteSpace=wrap;html=1;fontSize=12;glass=0;strokeWidth=1;shadow=0;" vertex="1" parent="WIyWlLk6GJQsqaUBKTNV-1">
          <mxGeometry x="-120" y="840" width="120" height="40" as="geometry" />
        </mxCell>
        <mxCell id="DlghnV1sn_fekvTvnl19-89" style="edgeStyle=orthogonalEdgeStyle;rounded=0;orthogonalLoop=1;jettySize=auto;html=1;exitX=1;exitY=0.5;exitDx=0;exitDy=0;" edge="1" parent="WIyWlLk6GJQsqaUBKTNV-1" source="DlghnV1sn_fekvTvnl19-71" target="DlghnV1sn_fekvTvnl19-72">
          <mxGeometry relative="1" as="geometry" />
        </mxCell>
        <mxCell id="DlghnV1sn_fekvTvnl19-71" value="Просмотр диалога с продавцом" style="rounded=1;whiteSpace=wrap;html=1;fontSize=12;glass=0;strokeWidth=1;shadow=0;" vertex="1" parent="WIyWlLk6GJQsqaUBKTNV-1">
          <mxGeometry x="200" y="840" width="120" height="40" as="geometry" />
        </mxCell>
        <mxCell id="DlghnV1sn_fekvTvnl19-72" value="Оформления покупки онлайн" style="rounded=1;whiteSpace=wrap;html=1;fontSize=12;glass=0;strokeWidth=1;shadow=0;" vertex="1" parent="WIyWlLk6GJQsqaUBKTNV-1">
          <mxGeometry x="360" y="840" width="120" height="40" as="geometry" />
        </mxCell>
        <mxCell id="DlghnV1sn_fekvTvnl19-102" style="edgeStyle=orthogonalEdgeStyle;rounded=0;orthogonalLoop=1;jettySize=auto;html=1;exitX=1;exitY=0.5;exitDx=0;exitDy=0;entryX=0;entryY=0.5;entryDx=0;entryDy=0;" edge="1" parent="WIyWlLk6GJQsqaUBKTNV-1" source="DlghnV1sn_fekvTvnl19-90" target="DlghnV1sn_fekvTvnl19-91">
          <mxGeometry relative="1" as="geometry" />
        </mxCell>
        <mxCell id="DlghnV1sn_fekvTvnl19-90" value="Главная страница" style="rounded=1;whiteSpace=wrap;html=1;fontSize=12;glass=0;strokeWidth=1;shadow=0;" vertex="1" parent="WIyWlLk6GJQsqaUBKTNV-1">
          <mxGeometry x="920" y="360" width="120" height="40" as="geometry" />
        </mxCell>
        <mxCell id="DlghnV1sn_fekvTvnl19-103" style="edgeStyle=orthogonalEdgeStyle;rounded=0;orthogonalLoop=1;jettySize=auto;html=1;exitX=1;exitY=0.5;exitDx=0;exitDy=0;entryX=0;entryY=0.5;entryDx=0;entryDy=0;" edge="1" parent="WIyWlLk6GJQsqaUBKTNV-1" source="DlghnV1sn_fekvTvnl19-91" target="DlghnV1sn_fekvTvnl19-92">
          <mxGeometry relative="1" as="geometry" />
        </mxCell>
        <mxCell id="DlghnV1sn_fekvTvnl19-91" value="Нажатие кнопки &quot;Подать объявление&quot;" style="rounded=1;whiteSpace=wrap;html=1;fontSize=12;glass=0;strokeWidth=1;shadow=0;" vertex="1" parent="WIyWlLk6GJQsqaUBKTNV-1">
          <mxGeometry x="1080" y="360" width="120" height="40" as="geometry" />
        </mxCell>
        <mxCell id="DlghnV1sn_fekvTvnl19-104" style="edgeStyle=orthogonalEdgeStyle;rounded=0;orthogonalLoop=1;jettySize=auto;html=1;exitX=1;exitY=0.5;exitDx=0;exitDy=0;entryX=0;entryY=0.5;entryDx=0;entryDy=0;" edge="1" parent="WIyWlLk6GJQsqaUBKTNV-1" source="DlghnV1sn_fekvTvnl19-92" target="DlghnV1sn_fekvTvnl19-93">
          <mxGeometry relative="1" as="geometry" />
        </mxCell>
        <mxCell id="DlghnV1sn_fekvTvnl19-92" value="Ввод названия товара" style="rounded=1;whiteSpace=wrap;html=1;fontSize=12;glass=0;strokeWidth=1;shadow=0;" vertex="1" parent="WIyWlLk6GJQsqaUBKTNV-1">
          <mxGeometry x="1240.5" y="360" width="120" height="40" as="geometry" />
        </mxCell>
        <mxCell id="DlghnV1sn_fekvTvnl19-105" style="edgeStyle=orthogonalEdgeStyle;rounded=0;orthogonalLoop=1;jettySize=auto;html=1;exitX=0.5;exitY=1;exitDx=0;exitDy=0;entryX=0.5;entryY=0;entryDx=0;entryDy=0;" edge="1" parent="WIyWlLk6GJQsqaUBKTNV-1" source="DlghnV1sn_fekvTvnl19-93" target="DlghnV1sn_fekvTvnl19-94">
          <mxGeometry relative="1" as="geometry" />
        </mxCell>
        <mxCell id="DlghnV1sn_fekvTvnl19-93" value="Выбор категории товара" style="rounded=1;whiteSpace=wrap;html=1;fontSize=12;glass=0;strokeWidth=1;shadow=0;" vertex="1" parent="WIyWlLk6GJQsqaUBKTNV-1">
          <mxGeometry x="1400" y="360" width="120" height="40" as="geometry" />
        </mxCell>
        <mxCell id="DlghnV1sn_fekvTvnl19-106" style="edgeStyle=orthogonalEdgeStyle;rounded=0;orthogonalLoop=1;jettySize=auto;html=1;exitX=0;exitY=0.5;exitDx=0;exitDy=0;entryX=1;entryY=0.5;entryDx=0;entryDy=0;" edge="1" parent="WIyWlLk6GJQsqaUBKTNV-1" source="DlghnV1sn_fekvTvnl19-94" target="DlghnV1sn_fekvTvnl19-95">
          <mxGeometry relative="1" as="geometry" />
        </mxCell>
        <mxCell id="DlghnV1sn_fekvTvnl19-94" value="Загрузка фотографий товара" style="rounded=1;whiteSpace=wrap;html=1;fontSize=12;glass=0;strokeWidth=1;shadow=0;" vertex="1" parent="WIyWlLk6GJQsqaUBKTNV-1">
          <mxGeometry x="1400" y="440" width="120" height="40" as="geometry" />
        </mxCell>
        <mxCell id="DlghnV1sn_fekvTvnl19-107" style="edgeStyle=orthogonalEdgeStyle;rounded=0;orthogonalLoop=1;jettySize=auto;html=1;exitX=0;exitY=0.5;exitDx=0;exitDy=0;entryX=1;entryY=0.5;entryDx=0;entryDy=0;" edge="1" parent="WIyWlLk6GJQsqaUBKTNV-1" source="DlghnV1sn_fekvTvnl19-95" target="DlghnV1sn_fekvTvnl19-96">
          <mxGeometry relative="1" as="geometry" />
        </mxCell>
        <mxCell id="DlghnV1sn_fekvTvnl19-95" value="Написание описания товара" style="rounded=1;whiteSpace=wrap;html=1;fontSize=12;glass=0;strokeWidth=1;shadow=0;" vertex="1" parent="WIyWlLk6GJQsqaUBKTNV-1">
          <mxGeometry x="1241" y="440" width="120" height="40" as="geometry" />
        </mxCell>
        <mxCell id="DlghnV1sn_fekvTvnl19-108" style="edgeStyle=orthogonalEdgeStyle;rounded=0;orthogonalLoop=1;jettySize=auto;html=1;exitX=0;exitY=0.5;exitDx=0;exitDy=0;entryX=1;entryY=0.5;entryDx=0;entryDy=0;" edge="1" parent="WIyWlLk6GJQsqaUBKTNV-1" source="DlghnV1sn_fekvTvnl19-96" target="DlghnV1sn_fekvTvnl19-97">
          <mxGeometry relative="1" as="geometry" />
        </mxCell>
        <mxCell id="DlghnV1sn_fekvTvnl19-96" value="Выбор цены товара" style="rounded=1;whiteSpace=wrap;html=1;fontSize=12;glass=0;strokeWidth=1;shadow=0;" vertex="1" parent="WIyWlLk6GJQsqaUBKTNV-1">
          <mxGeometry x="1080" y="440" width="120" height="40" as="geometry" />
        </mxCell>
        <mxCell id="DlghnV1sn_fekvTvnl19-109" style="edgeStyle=orthogonalEdgeStyle;rounded=0;orthogonalLoop=1;jettySize=auto;html=1;exitX=0.5;exitY=1;exitDx=0;exitDy=0;entryX=0.5;entryY=0;entryDx=0;entryDy=0;" edge="1" parent="WIyWlLk6GJQsqaUBKTNV-1" source="DlghnV1sn_fekvTvnl19-97" target="DlghnV1sn_fekvTvnl19-98">
          <mxGeometry relative="1" as="geometry" />
        </mxCell>
        <mxCell id="DlghnV1sn_fekvTvnl19-97" value="Выбор региона" style="rounded=1;whiteSpace=wrap;html=1;fontSize=12;glass=0;strokeWidth=1;shadow=0;" vertex="1" parent="WIyWlLk6GJQsqaUBKTNV-1">
          <mxGeometry x="920" y="440" width="120" height="40" as="geometry" />
        </mxCell>
        <mxCell id="DlghnV1sn_fekvTvnl19-110" style="edgeStyle=orthogonalEdgeStyle;rounded=0;orthogonalLoop=1;jettySize=auto;html=1;exitX=1;exitY=0.5;exitDx=0;exitDy=0;entryX=0;entryY=0.5;entryDx=0;entryDy=0;" edge="1" parent="WIyWlLk6GJQsqaUBKTNV-1" source="DlghnV1sn_fekvTvnl19-98" target="DlghnV1sn_fekvTvnl19-99">
          <mxGeometry relative="1" as="geometry" />
        </mxCell>
        <mxCell id="DlghnV1sn_fekvTvnl19-98" value="Нажатие кнопки &quot;Подать объявление&quot;" style="rounded=1;whiteSpace=wrap;html=1;fontSize=12;glass=0;strokeWidth=1;shadow=0;" vertex="1" parent="WIyWlLk6GJQsqaUBKTNV-1">
          <mxGeometry x="920" y="520" width="120" height="40" as="geometry" />
        </mxCell>
        <mxCell id="DlghnV1sn_fekvTvnl19-111" style="edgeStyle=orthogonalEdgeStyle;rounded=0;orthogonalLoop=1;jettySize=auto;html=1;exitX=0.5;exitY=1;exitDx=0;exitDy=0;entryX=0.5;entryY=0;entryDx=0;entryDy=0;" edge="1" parent="WIyWlLk6GJQsqaUBKTNV-1" source="DlghnV1sn_fekvTvnl19-99" target="DlghnV1sn_fekvTvnl19-100">
          <mxGeometry relative="1" as="geometry">
            <Array as="points">
              <mxPoint x="1140" y="580" />
              <mxPoint x="1140" y="580" />
            </Array>
          </mxGeometry>
        </mxCell>
        <mxCell id="DlghnV1sn_fekvTvnl19-113" value="Нет" style="edgeLabel;html=1;align=center;verticalAlign=middle;resizable=0;points=[];" vertex="1" connectable="0" parent="DlghnV1sn_fekvTvnl19-111">
          <mxGeometry x="-0.3373" y="-5" relative="1" as="geometry">
            <mxPoint y="1" as="offset" />
          </mxGeometry>
        </mxCell>
        <mxCell id="DlghnV1sn_fekvTvnl19-112" style="edgeStyle=orthogonalEdgeStyle;rounded=0;orthogonalLoop=1;jettySize=auto;html=1;exitX=1;exitY=0.5;exitDx=0;exitDy=0;entryX=0;entryY=0.5;entryDx=0;entryDy=0;" edge="1" parent="WIyWlLk6GJQsqaUBKTNV-1" source="DlghnV1sn_fekvTvnl19-99" target="DlghnV1sn_fekvTvnl19-101">
          <mxGeometry relative="1" as="geometry" />
        </mxCell>
        <mxCell id="DlghnV1sn_fekvTvnl19-114" value="Да" style="edgeLabel;html=1;align=center;verticalAlign=middle;resizable=0;points=[];" vertex="1" connectable="0" parent="DlghnV1sn_fekvTvnl19-112">
          <mxGeometry x="-0.5351" y="-3" relative="1" as="geometry">
            <mxPoint as="offset" />
          </mxGeometry>
        </mxCell>
        <mxCell id="DlghnV1sn_fekvTvnl19-99" value="Пользователь авторизирован?" style="rhombus;whiteSpace=wrap;html=1;" vertex="1" parent="WIyWlLk6GJQsqaUBKTNV-1">
          <mxGeometry x="1080" y="510" width="120" height="60" as="geometry" />
        </mxCell>
        <mxCell id="DlghnV1sn_fekvTvnl19-115" style="edgeStyle=orthogonalEdgeStyle;rounded=0;orthogonalLoop=1;jettySize=auto;html=1;exitX=1;exitY=0.5;exitDx=0;exitDy=0;entryX=0.5;entryY=1;entryDx=0;entryDy=0;" edge="1" parent="WIyWlLk6GJQsqaUBKTNV-1" source="DlghnV1sn_fekvTvnl19-100" target="DlghnV1sn_fekvTvnl19-101">
          <mxGeometry relative="1" as="geometry" />
        </mxCell>
        <mxCell id="DlghnV1sn_fekvTvnl19-100" value="Вход или регистрация" style="rounded=1;whiteSpace=wrap;html=1;fontSize=12;glass=0;strokeWidth=1;shadow=0;" vertex="1" parent="WIyWlLk6GJQsqaUBKTNV-1">
          <mxGeometry x="1080" y="600" width="120" height="40" as="geometry" />
        </mxCell>
        <mxCell id="DlghnV1sn_fekvTvnl19-101" value="Подтверждение данных" style="rounded=1;whiteSpace=wrap;html=1;fontSize=12;glass=0;strokeWidth=1;shadow=0;" vertex="1" parent="WIyWlLk6GJQsqaUBKTNV-1">
          <mxGeometry x="1241" y="520" width="120" height="40" as="geometry" />
        </mxCell>
      </root>
    </mxGraphModel>
  </diagram>
</mxfile>
